<svg width="105" height="20" viewBox="0 0 105 20" fill="none" xmlns="http://www.w3.org/2000/svg">
<g clip-path="url(#clip0_2223_223)">
<path d="M64.4293 15.3027C64.4159 10.2019 64.4263 5.10113 64.4248 0.000368578C65.2424 0.000368578 66.0599 -0.00110718 66.8774 0.00184722C66.8789 5.1484 66.8789 10.2964 66.8819 15.4445C66.9071 16.1535 66.9085 16.9158 67.3055 17.5347C67.7113 18.2024 68.474 18.6367 69.256 18.65C70.0128 18.6854 70.8422 18.6958 71.4761 18.2127C72.1737 17.7312 72.5084 16.8641 72.4921 16.0383C72.4981 14.1179 72.5173 12.1961 72.4818 10.2758C72.4669 9.18263 71.6716 8.11757 70.5623 7.93735C70.1743 7.80441 69.6366 7.97723 69.3923 7.56067C70.7874 7.29477 72.3529 7.40261 73.5511 8.22393C74.5078 8.87833 74.9596 10.0512 74.9833 11.1768C75.0025 12.4989 74.9892 13.824 74.9892 15.1476C74.9892 16.1476 74.727 17.2038 74.0072 17.938C73.1319 18.8317 71.8212 19.1404 70.6038 19.1109C69.1494 19.0725 67.5943 19.3044 66.2628 18.5717C65.0543 17.9734 64.4189 16.6085 64.4293 15.3027Z" fill="#974338"/>
<path d="M23.9967 0.560242C24.9505 0.16583 26.162 1.10533 25.8524 2.13198C25.6243 3.15863 24.1699 3.50873 23.4664 2.75388C22.7659 2.11425 23.071 0.806934 23.9967 0.560242Z" fill="#974338"/>
<path d="M84.5658 0.567638C85.5255 0.154022 86.7518 1.10091 86.4275 2.14085C86.1979 3.20591 84.6458 3.51613 83.9837 2.67855C83.3647 2.01677 83.6949 0.820238 84.5658 0.567638Z" fill="#974338"/>
<path d="M7.06079 1.84983C7.28591 1.15851 8.13307 0.573538 8.8425 0.947269C9.45418 1.33429 9.15945 2.15709 8.92544 2.68741C8.70476 3.26204 7.97164 3.17931 7.47697 3.2901C7.24592 2.85137 6.90528 2.36981 7.06079 1.84983Z" fill="#974338"/>
<path d="M5.84766 3.92231C5.84766 3.36984 6.22533 2.91043 6.6341 2.57806C6.97326 3.10395 7.26799 3.72289 7.16579 4.36695C7.13914 4.59444 6.97474 4.77908 6.77924 4.88692C6.23421 4.97407 5.91282 4.37876 5.84766 3.92231Z" fill="#974338"/>
<path d="M9.52813 3.01382C9.79769 2.43033 10.6611 2.70361 10.8981 3.18666C11.3232 3.75095 10.984 4.44671 10.6508 4.95929C10.0376 4.50432 9.42446 3.8381 9.52813 3.01382Z" fill="#974338"/>
<path d="M8.14635 4.40243C9.00685 4.10256 10.0732 4.93127 9.93102 5.84565C9.69702 6.44539 8.95649 6.56209 8.38777 6.54141C7.85162 6.54289 7.1422 6.39812 6.96299 5.81315C6.86524 5.11444 7.57171 4.62401 8.14635 4.40243Z" fill="#974338"/>
<path d="M4.96348 7.33611C4.60062 6.47195 4.83611 5.49257 4.97533 4.60034C5.63588 5.06418 6.24608 5.73483 6.32902 6.56944C6.37197 7.03328 6.37789 7.5636 6.07279 7.94915C5.61367 8.33765 5.19305 7.68325 4.96348 7.33611Z" fill="#974338"/>
<path d="M10.3368 6.43949C10.6952 5.83237 10.95 5.04354 11.6861 4.7998C12.12 5.50147 12.1052 6.44393 11.5898 7.10128C11.3751 7.3524 11.1455 7.68182 10.7886 7.71875C10.2628 7.55773 10.0317 6.89743 10.3368 6.43949Z" fill="#974338"/>
<path d="M7.85746 7.08059C8.55207 6.76003 9.28075 7.23864 9.78135 7.69805C10.3723 8.20473 10.2242 9.16639 9.69397 9.65978C9.28224 9.63909 8.93271 9.38354 8.53726 9.29786C8.00557 9.22105 7.61457 9.91828 7.11249 9.76318C6.31864 8.9389 6.83849 7.47057 7.85746 7.08059Z" fill="#974338"/>
<path d="M12.003 7.36862C12.2459 7.27408 12.3629 7.56804 12.4088 7.75269C12.711 8.80593 12.0801 9.84883 11.3736 10.5845C11.0981 10.9242 10.3931 10.9346 10.3191 10.422C10.3072 9.71736 10.7575 9.125 11.1144 8.55333C11.4002 8.15301 11.6106 7.68031 12.003 7.36862Z" fill="#974338"/>
<path d="M23.2473 7.37305C24.0693 7.37452 24.8898 7.37452 25.7103 7.37305C25.7118 11.2389 25.7118 15.1047 25.7103 18.9705C24.8898 18.9705 24.0678 18.9705 23.2473 18.969C23.2488 15.1032 23.2473 11.2389 23.2473 7.37305Z" fill="#974338"/>
<path d="M83.8372 7.37305C84.6592 7.37452 85.4812 7.37157 86.3031 7.376C86.3387 11.2374 86.2809 15.1003 86.3209 18.9631C85.4915 18.975 84.6636 18.9705 83.8357 18.9705C83.8387 15.1047 83.8357 11.2389 83.8372 7.37305Z" fill="#974338"/>
<path d="M93.2936 7.38193C94.7421 7.16478 96.3209 7.3258 97.528 8.21951C99.6918 6.82946 102.364 7.37898 104.787 7.2741C104.787 7.40113 104.785 7.65669 104.785 7.78373C103.584 7.70396 102.371 7.68771 101.179 7.85907C100.098 8.13235 99.166 9.02457 98.9083 10.1177C98.738 10.744 98.7824 11.3999 98.781 12.0425C98.7839 14.3617 98.7824 16.6809 98.781 18.9986C97.9575 19.0001 97.1355 19.0001 96.312 19.0001C96.312 16.186 96.3105 13.372 96.3135 10.5594C96.318 9.69523 96.0336 8.7572 95.2975 8.23871C94.7184 7.80293 93.9734 7.73794 93.2773 7.68476C93.2803 7.60942 93.2892 7.45727 93.2936 7.38193Z" fill="#974338"/>
<path d="M4.38 7.3819C5.32787 8.17367 6.1854 9.19294 6.50383 10.4042C6.75857 11.0542 5.73812 11.3526 5.43451 10.8518C4.73101 9.8562 4.0749 8.63751 4.38 7.3819Z" fill="#974338"/>
<path d="M33.9612 7.45729C35.4274 7.27855 37.0284 7.40411 38.2459 8.31702C39.4411 7.38638 41.0169 7.35536 42.4624 7.40116C43.8028 7.34207 45.2394 7.46763 46.3369 8.31406C47.381 7.52229 48.7317 7.3465 50.0069 7.39968C51.4539 7.38491 53.049 7.314 54.2768 8.21657C55.2588 8.90199 55.6809 10.1384 55.6809 11.295C55.6809 13.8624 55.6809 16.4298 55.6809 18.9972C54.85 19.009 54.0191 19.0178 53.1882 19.0267C53.1853 16.5494 53.1853 14.0722 53.1882 11.5949C53.1705 10.7485 53.2741 9.83705 52.8506 9.06448C52.4803 8.34952 51.6894 7.92261 50.9015 7.86056C50.2335 7.81477 49.5226 7.81182 48.9139 8.13237C48.2934 8.42338 47.8387 9.01869 47.7009 9.68638C47.5276 10.5579 47.5736 11.4516 47.5691 12.335C47.5676 14.5552 47.5721 16.7769 47.5662 18.9986C46.7442 19.0075 45.9207 19.0193 45.0987 19.0252C45.1002 16.548 45.0972 14.0707 45.1002 11.592C45.0943 10.8031 45.1476 9.97591 44.8292 9.23436C44.4989 8.46917 43.7199 7.95215 42.8994 7.86943C42.0226 7.78227 41.0362 7.82659 40.349 8.44849C39.6499 9.03789 39.4855 9.99511 39.4811 10.8608C39.4752 13.5729 39.4826 16.285 39.4796 18.9986C38.6606 19.009 37.843 19.0178 37.0255 19.0282C37.0136 16.4519 37.0062 13.8757 37.0092 11.2995C37.0403 10.3925 36.9914 9.38651 36.362 8.66712C35.7829 7.97579 34.8394 7.79852 33.9834 7.77193C33.9775 7.69364 33.9671 7.53558 33.9612 7.45729Z" fill="#974338"/>
<path d="M8.00573 10.1975C8.35229 9.97736 8.80846 10.0187 9.11356 10.2905C9.509 10.6126 9.97701 11.0513 9.89704 11.6111C9.62896 12.1429 9.21871 12.6186 8.73441 12.9657C8.12569 13.2434 7.5229 12.6762 7.18226 12.2242C6.69796 11.4678 7.2963 10.5461 8.00573 10.1975Z" fill="#974338"/>
<path d="M10.6982 12.1104C10.9426 11.8416 11.2447 11.6377 11.5602 11.4619C11.8593 12.4177 11.2906 13.3424 10.7234 14.0692C9.3682 15.7812 7.25621 16.5952 5.64483 18.0133C5.04944 18.5155 4.69547 19.2202 4.36816 19.9085C4.3415 19.1625 4.31336 18.3516 4.75471 17.7075C5.25679 16.9778 5.95141 16.4105 6.52754 15.7428C5.7174 16.0486 4.86283 16.5745 3.96827 16.2731C2.73603 15.8906 2.07252 14.6925 1.44307 13.6644C1.08318 13.0351 0.607758 12.4871 0.108643 11.9671C1.04911 11.5949 2.0666 12.0661 2.90636 12.493C3.91644 13.1105 4.8732 13.8712 5.60336 14.8063C4.59624 15.1328 3.74019 14.3085 2.95079 13.8166C3.03225 14.2834 3.24256 14.7339 3.64244 15.0101C4.31632 15.5375 5.21828 15.5744 6.03286 15.4592C6.3039 15.3898 6.52753 15.5626 6.75117 15.6808C8.18928 14.6335 9.47928 13.4015 10.6982 12.1104Z" fill="#974338"/>
<path d="M5.37231 11.6185C6.33796 11.6097 6.92002 12.465 7.44727 13.1445C7.59982 13.3513 7.77755 13.7664 7.4532 13.8979C7.04295 14.115 6.53939 13.9141 6.21207 13.6334C5.63446 13.1312 5.43896 12.3498 5.37231 11.6185Z" fill="#974338"/>
<path d="M13.9491 12.982C14.6719 12.7663 15.445 12.5388 16.2003 12.7087C16.2937 12.9701 16.0508 13.1563 15.9175 13.3498C14.6986 14.7546 13.9906 16.5656 12.5421 17.7784C11.9393 18.3073 11.0922 18.52 10.3057 18.3737C9.48524 18.2201 8.59216 18.0133 8.04565 17.3264C8.50922 17.3087 8.97131 17.3323 9.43192 17.3737C10.676 17.5051 11.9927 16.9069 12.6503 15.8329C12.791 15.6128 12.7969 15.3425 12.8383 15.0943C12.2059 15.4548 11.7053 16.022 11.0167 16.2894C10.4746 16.5435 9.86735 16.61 9.27641 16.5435C10.6108 15.1106 12.0638 13.6511 13.9491 12.982Z" fill="#974338"/>
</g>
<defs>
<clipPath id="clip0_2223_223">
<rect width="105" height="20" fill="white"/>
</clipPath>
</defs>
</svg>
