<svg width="110" height="48" viewBox="0 0 110 48" fill="none" xmlns="http://www.w3.org/2000/svg">
    <path d="M45.8144 6.68042L38.3299 41.1547H47.4021L54.6597 6.68042H45.8144Z" fill="#1A1F71"/>
    <path d="M32.6599 6.68048L23.3608 30.0413L19.5051 10.0825C19.0515 7.81451 17.2371 6.68048 15.4227 6.68048H0.226749L0 7.58776C3.17526 8.26817 6.57738 9.40216 8.84542 10.5362C10.2062 11.2166 10.433 11.897 10.8866 13.4846L17.9176 40.928H27.4433L41.9588 6.45374H32.6599V6.68048Z" fill="#1A1F71"/>
    <path d="M103.196 6.68042H95.4844C93.6699 6.68042 92.3092 7.58772 91.6288 9.17535L78.2473 41.1547H87.5462L89.3608 35.9382H100.701L101.835 41.1547H110L103.196 6.68042ZM92.3092 28.9072L97.072 15.9795L99.7937 28.9072H92.3092Z" fill="#1A1F71"/>
    <path d="M66.4536 16.2062C66.4536 15.0722 67.5877 13.7114 70.3093 13.2578C71.6702 13.031 75.0723 13.031 79.1547 14.8454L80.7423 7.58766C78.701 6.90724 75.7527 6 72.3506 6C63.5053 6 57.3815 10.7629 57.3815 17.3402C57.3815 22.3299 61.9176 25.0515 65.0929 26.6391C68.4949 28.2268 69.6289 29.3608 69.6289 30.9485C69.6289 33.2165 66.9072 34.3505 64.1856 34.3505C59.6495 34.3505 57.1547 33.2165 55.1134 32.0825L53.5258 39.567C55.567 40.4742 59.4227 41.3814 63.5052 41.3814C72.8042 41.3814 78.9279 36.8454 78.9279 29.5877C78.9279 20.9691 66.2268 20.2887 66.4536 16.2062Z" fill="#1A1F71"/>
</svg>
