<svg width="484" height="140" viewBox="0 0 484 140" fill="none" xmlns="http://www.w3.org/2000/svg">
<g clip-path="url(#clip0_4045_9013)">
<mask id="mask0_4045_9013" style="mask-type:luminance" maskUnits="userSpaceOnUse" x="0" y="0" width="484" height="140">
<path d="M483.5 0H0.5V140H483.5V0Z" fill="white"/>
</mask>
<g mask="url(#mask0_4045_9013)">
<path d="M296.375 70.3922C296.314 46.9287 296.361 23.4652 296.355 0.00169546C300.115 0.00169546 303.876 -0.00509301 307.637 0.0084972C307.644 23.6827 307.644 47.3636 307.657 71.0445C307.773 74.3062 307.78 77.8125 309.606 80.6596C311.472 83.731 314.981 85.7288 318.578 85.7899C322.06 85.953 325.875 86.0006 328.791 83.7786C332 81.5634 333.539 77.5747 333.464 73.7762C333.492 64.9426 333.58 56.1021 333.417 47.2685C333.348 42.2401 329.69 37.3408 324.587 36.5118C322.802 35.9003 320.329 36.6953 319.205 34.7791C325.623 33.5559 332.824 34.052 338.335 37.8301C342.737 40.8403 344.814 46.2356 344.923 51.4135C345.012 57.4951 344.951 63.5903 344.951 69.6787C344.951 74.279 343.745 79.1375 340.434 82.5147C336.407 86.6257 330.378 88.0459 324.778 87.91C318.088 87.7333 310.934 88.8002 304.809 85.4298C299.25 82.6778 296.327 76.3991 296.375 70.3922Z" fill="white"/>
<path d="M110.384 2.57704C114.772 0.762748 120.345 5.08442 118.921 9.80703C117.872 14.5296 111.181 16.1401 107.945 12.6678C104.723 9.7255 106.126 3.71182 110.384 2.57704Z" fill="white"/>
<path d="M389.003 2.61102C393.418 0.708395 399.059 5.06405 397.567 9.84781C396.511 14.7471 389.371 16.1741 386.326 12.3212C383.478 9.27703 384.997 3.77299 389.003 2.61102Z" fill="white"/>
<path d="M32.4792 8.50912C33.5147 5.32901 37.4117 2.63815 40.6751 4.35732C43.4888 6.13763 42.133 9.92251 41.0566 12.362C40.0415 15.0053 36.6691 14.6247 34.3936 15.1344C33.3308 13.1162 31.7638 10.901 32.4792 8.50912Z" fill="white"/>
<path d="M26.8994 18.0428C26.8994 15.5015 28.6367 13.3882 30.5171 11.8593C32.0772 14.2784 33.433 17.1255 32.9629 20.0882C32.8402 21.1346 32.084 21.984 31.1847 22.48C28.6776 22.8809 27.1992 20.1425 26.8994 18.0428Z" fill="white"/>
<path d="M43.8294 13.8637C45.0693 11.1797 49.0412 12.4368 50.1313 14.6588C52.0866 17.2545 50.5264 20.455 48.9935 22.8129C46.173 20.72 43.3525 17.6554 43.8294 13.8637Z" fill="white"/>
<path d="M37.4733 20.2511C41.4316 18.8717 46.3368 22.6838 45.6828 26.89C44.6063 29.6488 41.1999 30.1856 38.5838 30.0905C36.1175 30.0972 32.8542 29.4313 32.0298 26.7405C31.5802 23.5264 34.8299 21.2704 37.4733 20.2511Z" fill="white"/>
<path d="M22.8324 33.7462C21.1632 29.771 22.2465 25.2659 22.8869 21.1617C25.9254 23.2953 28.7323 26.3803 29.1138 30.2195C29.3114 32.3532 29.3387 34.7926 27.9352 36.5661C25.8232 38.3533 23.8884 35.343 22.8324 33.7462Z" fill="white"/>
<path d="M47.5493 29.6216C49.198 26.8288 50.3698 23.2002 53.7558 22.079C55.752 25.3067 55.6838 29.642 53.313 32.6658C52.3251 33.821 51.2691 35.3363 49.6272 35.5062C47.2087 34.7655 46.1458 31.7281 47.5493 29.6216Z" fill="white"/>
<path d="M36.1447 32.5706C39.3399 31.0961 42.6918 33.2977 44.9946 35.411C47.7129 37.7417 47.0316 42.1653 44.5926 44.4349C42.6986 44.3398 41.0908 43.1642 39.2718 42.7701C36.826 42.4168 35.0274 45.624 32.7178 44.9106C29.0661 41.1189 31.4574 34.3645 36.1447 32.5706Z" fill="white"/>
<path d="M55.2141 33.8957C56.3314 33.4608 56.8696 34.813 57.0808 35.6624C58.4706 40.5073 55.5683 45.3047 52.3186 48.6886C51.0514 50.2515 47.8086 50.2991 47.4679 47.9412C47.4134 44.6999 49.4845 41.9751 51.1264 39.3454C52.4413 37.5039 53.4087 35.3295 55.2141 33.8957Z" fill="white"/>
<path d="M106.937 33.9161C110.718 33.9229 114.493 33.9229 118.267 33.9161C118.274 51.6989 118.274 69.4817 118.267 87.2645C114.493 87.2645 110.712 87.2645 106.937 87.2577C106.944 69.4749 106.937 51.6989 106.937 33.9161Z" fill="white"/>
<path d="M385.651 33.9161C389.432 33.9229 393.213 33.9093 396.994 33.9297C397.158 51.6921 396.892 69.4613 397.076 87.2305C393.261 87.2849 389.452 87.2645 385.644 87.2645C385.658 69.4817 385.644 51.6989 385.651 33.9161Z" fill="white"/>
<path d="M429.151 33.9569C435.814 32.958 443.076 33.6987 448.629 37.8097C458.583 31.4155 470.873 33.9433 482.019 33.4608C482.019 34.0452 482.012 35.2208 482.012 35.8051C476.487 35.4382 470.907 35.3635 465.423 36.1517C460.449 37.4088 456.164 41.513 454.979 46.5414C454.195 49.4225 454.399 52.4396 454.393 55.3954C454.406 66.0637 454.399 76.7321 454.393 87.3936C450.605 87.4004 446.824 87.4004 443.036 87.4004C443.036 74.4557 443.029 61.511 443.042 48.5731C443.063 44.598 441.755 40.2831 438.369 37.898C435.705 35.8935 432.278 35.5945 429.076 35.3499C429.09 35.0033 429.131 34.3034 429.151 33.9569Z" fill="white"/>
<path d="M20.1481 33.9568C24.5083 37.599 28.4529 42.2876 29.9177 47.8596C31.0895 50.8494 26.3954 52.2221 24.9988 49.9185C21.7627 45.3386 18.7446 39.7327 20.1481 33.9568Z" fill="white"/>
<path d="M156.222 34.3035C162.966 33.4813 170.331 34.0589 175.931 38.2583C181.429 33.9774 188.678 33.8347 195.327 34.0453C201.493 33.7735 208.101 34.3511 213.15 38.2447C217.953 34.6025 224.166 33.7939 230.032 34.0385C236.688 33.9706 244.026 33.6444 249.673 37.7962C254.19 40.9491 256.132 46.6366 256.132 51.9572C256.132 63.7671 256.132 75.577 256.132 87.3869C252.31 87.4413 248.488 87.482 244.666 87.5228C244.652 76.1274 244.652 64.732 244.666 53.3366C244.584 49.443 245.061 45.2504 243.113 41.6966C241.409 38.4078 237.771 36.444 234.147 36.1586C231.074 35.9479 227.804 35.9344 225.004 37.4089C222.15 38.7475 220.058 41.486 219.424 44.5574C218.627 48.5665 218.839 52.6775 218.818 56.741C218.811 66.954 218.832 77.1739 218.804 87.3937C215.023 87.4345 211.235 87.4889 207.454 87.516C207.461 76.1206 207.447 64.7252 207.461 53.323C207.434 49.6945 207.679 45.8892 206.214 42.4781C204.695 38.9582 201.111 36.5799 197.337 36.1994C193.304 35.7984 188.767 36.0023 185.605 38.8631C182.39 41.5743 181.634 45.9775 181.613 49.9595C181.586 62.4353 181.62 74.9111 181.606 87.3937C177.839 87.4413 174.078 87.482 170.317 87.5296C170.263 75.6789 170.229 63.8283 170.242 51.9776C170.385 47.8054 170.161 43.178 167.265 39.8687C164.601 36.6886 160.262 35.8732 156.324 35.7509C156.296 35.3907 156.249 34.6637 156.222 34.3035Z" fill="white"/>
<path d="M36.8263 46.9083C38.4205 45.8959 40.5189 46.0861 41.9223 47.3364C43.7414 48.8178 45.8942 50.8359 45.5263 53.4113C44.2932 55.8575 42.406 58.0455 40.1782 59.6424C37.3782 60.9199 34.6053 58.3105 33.0384 56.2312C30.8106 52.7521 33.563 48.512 36.8263 46.9083Z" fill="white"/>
<path d="M49.2119 55.708C50.336 54.4713 51.7258 53.5336 53.177 52.7249C54.5532 57.1214 51.937 61.3751 49.3277 64.7183C43.094 72.5938 33.3788 76.3379 25.9664 82.8613C23.2277 85.1716 21.5994 88.4128 20.0938 91.5794C19.9711 88.1478 19.8417 84.4173 21.8719 81.4547C24.1815 78.0979 27.3767 75.4886 30.0269 72.4172C26.3003 73.8238 22.3693 76.2428 18.2543 74.8566C12.586 73.0967 9.53384 67.5858 6.63838 62.8565C4.98285 59.9617 2.79593 57.4408 0.5 55.0489C4.82616 53.3365 9.50659 55.5042 13.3695 57.4679C18.0158 60.3083 22.4169 63.8078 25.7757 68.1091C21.1429 69.6108 17.2051 65.8191 13.5739 63.5563C13.9486 65.7036 14.916 67.7761 16.7555 69.0468C19.8553 71.4726 24.0043 71.6425 27.7514 71.1125C28.9982 70.7931 30.0269 71.5882 31.0556 72.1318C37.6709 67.314 43.6049 61.6469 49.2119 55.708Z" fill="white"/>
<path d="M24.7129 53.4453C29.1549 53.4046 31.8323 57.3389 34.2577 60.4647C34.9594 61.416 35.777 63.3254 34.285 63.9302C32.3978 64.9291 30.0814 64.0049 28.5758 62.7139C25.9188 60.4035 25.0195 56.8089 24.7129 53.4453Z" fill="white"/>
<path d="M64.1664 59.7171C67.491 58.725 71.0474 57.6786 74.5219 58.46C74.9511 59.6627 73.8337 60.5189 73.2206 61.4091C67.6136 67.8712 64.3571 76.202 57.6942 81.7808C54.9213 84.2135 51.0244 85.192 47.4067 84.5193C43.6324 83.8126 39.5243 82.8613 37.0103 79.7015C39.1428 79.62 41.2684 79.7287 43.3872 79.919C49.11 80.5237 55.1666 77.7717 58.1915 72.8317C58.8387 71.8192 58.866 70.5757 59.0567 69.4341C56.1476 71.0921 53.8449 73.7014 50.6769 74.9314C48.1834 76.1001 45.3901 76.4059 42.6718 76.1001C48.8102 69.5089 55.4936 62.7953 64.1664 59.7171Z" fill="white"/>
<path d="M16.8848 118.107C21.9945 118.114 27.1041 118.101 32.2069 118.114C32.1933 118.787 32.1729 119.467 32.1592 120.153C29.9519 120.146 27.7513 120.146 25.544 120.153C25.544 126.615 25.5371 133.077 25.544 139.539C25.0126 139.539 23.9429 139.539 23.4115 139.539C23.4115 133.077 23.4047 126.608 23.4115 120.146C21.245 120.146 19.0786 120.146 16.9121 120.146C16.9053 119.636 16.8916 118.617 16.8848 118.107Z" fill="white"/>
<path d="M47.5566 118.101C48.088 118.101 49.1372 118.107 49.6686 118.107C49.6686 121.26 49.6686 124.413 49.6754 127.566C53.5723 127.566 57.4625 127.566 61.3594 127.566C61.3594 124.413 61.3594 121.26 61.3594 118.107C62.0816 118.101 62.797 118.101 63.5259 118.107C63.5123 125.249 63.5123 132.391 63.5259 139.539C62.797 139.532 62.0748 139.532 61.3594 139.532C61.3594 136.21 61.3594 132.887 61.3594 129.564C57.4625 129.571 53.5655 129.571 49.6686 129.571C49.6686 132.887 49.6686 136.21 49.6686 139.532C49.144 139.539 48.088 139.546 47.5634 139.553C47.5566 132.398 47.5566 125.249 47.5566 118.101Z" fill="white"/>
<path d="M86.7915 118.121C87.5205 118.107 88.2562 118.101 88.992 118.101C91.7785 125.249 94.5513 132.411 97.2628 139.594C96.4793 139.539 95.6959 139.485 94.9192 139.444C94.2992 137.732 93.6725 136.026 93.0593 134.321C89.6461 134.273 86.2396 134.293 82.8264 134.293C82.1655 136.033 81.4979 137.772 80.837 139.512C80.2648 139.519 79.127 139.546 78.5615 139.56C81.2935 132.404 84.0936 125.283 86.7915 118.121ZM83.5758 132.275C86.4713 132.282 89.3599 132.282 92.2486 132.282C90.8042 128.49 89.428 124.685 87.9292 120.921C86.3827 124.665 85.0474 128.497 83.5758 132.275Z" fill="white"/>
<path d="M112.34 118.094C113.055 118.101 113.777 118.114 114.493 118.135C114.472 125.27 114.486 132.398 114.486 139.526C113.948 139.533 112.871 139.539 112.333 139.546C112.34 132.391 112.326 125.242 112.34 118.094Z" fill="white"/>
<path d="M154.852 118.345C158.756 116.551 163.409 118.678 165.153 122.456C164.71 122.653 163.811 123.048 163.361 123.245C161.992 120.846 159.308 119.106 156.473 119.976C153.932 120.302 152.447 123.679 154.246 125.623C157.243 127.954 161.529 127.879 164.356 130.509C166.543 132.86 165.848 137.127 163.062 138.724C158.688 141.428 152.297 139.662 150.281 134.844C150.846 134.443 151.412 134.056 151.977 133.668C153.299 136.42 156.072 138.404 159.246 137.847C162.183 137.99 164.901 134.463 162.803 131.935C159.819 129.34 155.22 129.578 152.386 126.73C150.178 123.999 151.575 119.521 154.852 118.345Z" fill="white"/>
<path d="M181.477 118.094C184.781 118.237 188.154 117.768 191.417 118.461C196.002 119.793 197.426 126.309 194.06 129.571C191.383 132.445 187.077 131.419 183.589 131.609C183.582 134.253 183.582 136.896 183.596 139.539C183.058 139.539 181.988 139.539 181.45 139.539C181.463 132.391 181.416 125.242 181.477 118.094ZM183.589 120.146C183.582 123.299 183.582 126.445 183.589 129.598C186.076 129.523 188.651 129.917 191.07 129.197C194.626 127.804 194.639 122.103 191.192 120.574C188.753 119.765 186.11 120.248 183.589 120.146Z" fill="white"/>
<path d="M215.834 118.107C216.563 118.107 217.298 118.107 218.034 118.121C220.787 125.263 223.573 132.391 226.278 139.553C225.712 139.546 224.575 139.526 224.009 139.512C223.348 137.773 222.701 136.026 222.047 134.293C218.641 134.293 215.234 134.28 211.835 134.314C211.174 136.047 210.513 137.773 209.866 139.505C209.096 139.519 208.333 139.532 207.577 139.56C210.343 132.411 213.095 125.263 215.834 118.107ZM216.924 120.968C215.398 124.706 214.076 128.518 212.591 132.275C215.479 132.282 218.368 132.282 221.257 132.275C219.853 128.49 218.484 124.692 216.924 120.968Z" fill="white"/>
<path d="M261.33 118.128C264.601 118.209 267.925 117.802 271.155 118.427C275.855 119.698 277.313 126.398 273.825 129.659C271.134 132.418 266.937 131.433 263.49 131.596C263.49 134.239 263.483 136.882 263.49 139.526C262.945 139.526 261.869 139.526 261.324 139.526C261.33 132.391 261.324 125.256 261.33 118.128ZM263.49 120.139C263.483 123.292 263.49 126.445 263.49 129.598C265.909 129.544 268.389 129.87 270.759 129.258C274.459 127.967 274.527 122.015 270.957 120.527C268.545 119.813 265.97 120.221 263.49 120.139Z" fill="white"/>
<path d="M291.729 118.121C292.437 118.107 293.146 118.101 293.854 118.101C293.868 124.576 293.861 131.052 293.861 137.535C297.165 137.521 300.47 137.501 303.781 137.596C303.774 138.078 303.753 139.043 303.747 139.519C299.741 139.539 295.735 139.532 291.736 139.539C291.736 132.398 291.736 125.263 291.729 118.121Z" fill="white"/>
<path d="M325.82 118.094C326.543 118.108 327.265 118.121 328.001 118.142C330.76 125.263 333.478 132.398 336.258 139.519C335.495 139.519 334.732 139.526 333.976 139.539C331.632 133.329 329.309 127.118 326.931 120.928C324.424 127.057 322.182 133.288 319.852 139.485C319.267 139.505 318.102 139.539 317.516 139.56C320.309 132.411 323.027 125.236 325.82 118.094Z" fill="white"/>
<path d="M347.962 118.107C353.065 118.121 358.168 118.107 363.278 118.121C363.264 118.624 363.25 119.636 363.244 120.139C361.057 120.139 358.87 120.139 356.69 120.146C356.683 126.608 356.69 133.077 356.683 139.546C356.145 139.539 355.068 139.526 354.523 139.519C354.537 133.057 354.523 126.601 354.53 120.139C352.343 120.139 350.156 120.139 347.969 120.139C347.969 119.63 347.962 118.617 347.962 118.107Z" fill="white"/>
<path d="M378.682 118.08C379.383 118.101 380.092 118.128 380.807 118.162C380.794 125.276 380.8 132.398 380.807 139.512C380.276 139.519 379.213 139.539 378.682 139.553C378.675 132.391 378.668 125.236 378.682 118.08Z" fill="white"/>
<path d="M397.982 118.087C398.609 118.108 399.249 118.135 399.89 118.169C403.834 123.992 407.82 129.781 411.826 135.571C411.846 129.748 411.826 123.931 411.833 118.121C412.364 118.114 413.42 118.101 413.951 118.101C413.951 125.256 413.965 132.418 413.945 139.573C413.481 139.56 412.548 139.519 412.085 139.498C408.092 133.723 404.168 127.899 400.142 122.144C400.094 127.94 400.121 133.743 400.121 139.546C399.399 139.532 398.684 139.526 397.975 139.526C397.982 132.377 397.975 125.236 397.982 118.087Z" fill="white"/>
<path d="M430.847 118.135C431.542 118.114 432.251 118.101 432.966 118.087C433 122.565 432.925 127.036 432.973 131.514C432.987 133.478 433.334 135.775 435.18 136.889C438.198 138.853 443.635 138.01 444.439 134.022C445.086 128.749 444.568 123.401 444.739 118.101C445.263 118.107 446.313 118.121 446.837 118.128C446.755 123.265 447.028 128.416 446.728 133.546C446.51 136.78 443.683 139.349 440.556 139.804C436.407 140.762 431.297 138.126 430.963 133.594C430.663 128.45 430.943 123.285 430.847 118.135Z" fill="white"/>
<path d="M463.679 118.128C464.571 118.114 465.47 118.107 466.377 118.101C468.761 122.083 471.139 126.065 473.53 130.04C475.942 126.112 478.306 122.151 480.643 118.175C481.583 118.135 482.523 118.101 483.484 118.074C483.511 125.236 483.497 132.391 483.49 139.546C482.925 139.539 481.787 139.532 481.222 139.526C481.215 133.492 481.249 127.458 481.201 121.424C478.633 125.643 476.153 129.904 473.564 134.103C470.934 129.931 468.475 125.65 465.906 121.437C465.859 127.464 465.893 133.498 465.886 139.526C465.334 139.526 464.231 139.519 463.672 139.519C463.679 132.384 463.672 125.256 463.679 118.128Z" fill="white"/>
</g>
</g>
<defs>
<clipPath id="clip0_4045_9013">
<rect width="484" height="140" fill="white"/>
</clipPath>
</defs>
</svg>
