<svg width="210" height="61" viewBox="0 0 210 61" fill="none" xmlns="http://www.w3.org/2000/svg">
<g clip-path="url(#clip0_4008_602)">
<path d="M128.592 30.6709C128.566 20.4475 128.586 10.2241 128.584 0.000738736C130.215 0.000738736 131.847 -0.0022191 133.479 0.00370235C133.482 10.3189 133.482 20.637 133.487 30.9551C133.538 32.3763 133.541 33.904 134.333 35.1445C135.143 36.4828 136.665 37.3533 138.226 37.3799C139.737 37.4509 141.392 37.4717 142.657 36.5035C144.049 35.5383 144.717 33.8004 144.685 32.1453C144.697 28.2964 144.735 24.4445 144.664 20.5956C144.634 18.4046 143.047 16.2699 140.833 15.9087C140.059 15.6423 138.986 15.9887 138.498 15.1537C141.283 14.6208 144.407 14.8369 146.798 16.4831C148.708 17.7947 149.609 20.1455 149.657 22.4016C149.695 25.0514 149.669 27.7072 149.669 30.36C149.669 32.3644 149.145 34.4813 147.709 35.9528C145.962 37.7441 143.346 38.3629 140.916 38.3036C138.013 38.2267 134.909 38.6915 132.252 37.223C129.84 36.0239 128.571 33.2882 128.592 30.6709Z" fill="white"/>
<path d="M47.8937 1.12283C49.7976 0.332319 52.2157 2.21533 51.5978 4.27304C51.1427 6.33073 48.2396 7.03245 46.8355 5.51952C45.4375 4.23752 46.0463 1.61727 47.8937 1.12283Z" fill="white"/>
<path d="M168.782 1.13765C170.698 0.308652 173.145 2.20647 172.498 4.29083C172.04 6.42552 168.942 7.04728 167.621 5.36852C166.385 4.04213 167.044 1.64394 168.782 1.13765Z" fill="white"/>
<path d="M14.0921 3.70758C14.5414 2.32196 16.2322 1.14951 17.6481 1.89858C18.869 2.67429 18.2807 4.32341 17.8137 5.38633C17.3732 6.53806 15.91 6.37222 14.9227 6.59431C14.4616 5.71495 13.7817 4.74975 14.0921 3.70758Z" fill="white"/>
<path d="M11.6711 7.86148C11.6711 6.7542 12.4249 5.8334 13.2407 5.16724C13.9176 6.22127 14.5059 7.46179 14.3019 8.75269C14.2487 9.20862 13.9206 9.57871 13.5304 9.79483C12.4426 9.9695 11.8012 8.77635 11.6711 7.86148Z" fill="white"/>
<path d="M19.0167 6.04064C19.5547 4.87118 21.2781 5.41891 21.751 6.38707C22.5994 7.51806 21.9225 8.91256 21.2574 9.93993C20.0336 9.02802 18.8098 7.69273 19.0167 6.04064Z" fill="white"/>
<path d="M16.2589 8.82367C17.9764 8.22265 20.1047 9.88364 19.8209 11.7163C19.3538 12.9184 17.8758 13.1523 16.7408 13.1108C15.6707 13.1138 14.2548 12.8236 13.8971 11.6512C13.702 10.2508 15.112 9.2678 16.2589 8.82367Z" fill="white"/>
<path d="M9.90648 14.7037C9.18224 12.9717 9.65227 11.0087 9.93012 9.22046C11.2485 10.1501 12.4664 11.4943 12.6319 13.1671C12.7176 14.0968 12.7295 15.1596 12.1205 15.9324C11.2041 16.7111 10.3647 15.3995 9.90648 14.7037Z" fill="white"/>
<path d="M20.6308 12.9065C21.3461 11.6897 21.8545 10.1086 23.3237 9.62012C24.1898 11.0265 24.1602 12.9154 23.1315 14.2329C22.7029 14.7363 22.2447 15.3965 21.5323 15.4705C20.483 15.1478 20.0218 13.8244 20.6308 12.9065Z" fill="white"/>
<path d="M15.6825 14.1915C17.0688 13.5491 18.5232 14.5083 19.5223 15.4291C20.7017 16.4446 20.4061 18.3721 19.3479 19.361C18.5261 19.3195 17.8285 18.8073 17.0393 18.6356C15.9781 18.4816 15.1977 19.8791 14.1956 19.5682C12.6112 17.9161 13.6487 14.9731 15.6825 14.1915Z" fill="white"/>
<path d="M23.9564 14.7688C24.4412 14.5793 24.6747 15.1685 24.7663 15.5386C25.3693 17.6496 24.1101 19.7399 22.7001 21.2143C22.1503 21.8953 20.7433 21.916 20.5954 20.8886C20.5718 19.4764 21.4704 18.2891 22.1828 17.1433C22.7533 16.341 23.173 15.3935 23.9564 14.7688Z" fill="white"/>
<path d="M46.3981 14.7777C48.0387 14.7807 49.6766 14.7807 51.314 14.7777C51.3171 22.5259 51.3171 30.2742 51.314 38.0224C49.6766 38.0224 48.0361 38.0224 46.3981 38.0194C46.4012 30.2712 46.3981 22.5259 46.3981 14.7777Z" fill="white"/>
<path d="M167.328 14.7777C168.968 14.7807 170.609 14.7747 172.249 14.7836C172.32 22.523 172.205 30.2653 172.285 38.0076C170.63 38.0313 168.977 38.0224 167.325 38.0224C167.331 30.2742 167.325 22.5259 167.328 14.7777Z" fill="white"/>
<path d="M186.202 14.7956C189.093 14.3603 192.244 14.6831 194.653 16.4743C198.972 13.6882 204.304 14.7896 209.14 14.5794C209.14 14.834 209.137 15.3463 209.137 15.6008C206.74 15.441 204.319 15.4084 201.94 15.7519C199.781 16.2996 197.922 18.0879 197.408 20.2788C197.068 21.5341 197.156 22.8487 197.154 24.1366C197.159 28.785 197.156 33.4333 197.154 38.0787C195.51 38.0817 193.87 38.0817 192.226 38.0817C192.226 32.4415 192.223 26.8013 192.229 21.164C192.238 19.432 191.67 17.552 190.201 16.5128C189.045 15.6394 187.558 15.5091 186.169 15.4025C186.175 15.2515 186.193 14.9465 186.202 14.7956Z" fill="white"/>
<path d="M8.7418 14.7954C10.6336 16.3824 12.3451 18.4253 12.9807 20.8531C13.4891 22.1558 11.4524 22.7539 10.8464 21.7502C9.44235 19.7546 8.13284 17.3121 8.7418 14.7954Z" fill="white"/>
<path d="M67.7821 14.9465C70.7083 14.5882 73.9038 14.8399 76.3336 16.6697C78.7191 14.8044 81.8643 14.7422 84.7492 14.834C87.4245 14.7156 90.2916 14.9672 92.4823 16.6637C94.5662 15.0768 97.262 14.7245 99.8071 14.831C102.695 14.8014 105.879 14.6593 108.329 16.4683C110.289 17.8421 111.132 20.3202 111.132 22.6385C111.132 27.7842 111.132 32.9299 111.132 38.0757C109.473 38.0994 107.815 38.1171 106.157 38.1349C106.151 33.1698 106.151 28.2046 106.157 23.2395C106.121 21.543 106.328 19.7162 105.483 18.1678C104.743 16.7348 103.165 15.8791 101.593 15.7548C100.259 15.663 98.8404 15.6571 97.6256 16.2996C96.3873 16.8828 95.4796 18.076 95.2045 19.4143C94.8587 21.1611 94.9507 22.9523 94.9416 24.7228C94.9385 29.1728 94.9476 33.6257 94.9355 38.0787C93.295 38.0964 91.6514 38.1201 90.0109 38.1319C90.0139 33.1668 90.0079 28.2017 90.0139 23.2336C90.0022 21.6526 90.1085 19.9945 89.4729 18.5083C88.8138 16.9746 87.2588 15.9384 85.6213 15.7726C83.8714 15.5978 81.9029 15.6867 80.531 16.9332C79.136 18.1145 78.808 20.033 78.7989 21.768C78.7872 27.2039 78.8019 32.6398 78.7959 38.0787C77.1614 38.0994 75.5296 38.1171 73.8977 38.1379C73.8743 32.9743 73.8596 27.8109 73.8652 22.6474C73.9272 20.8295 73.83 18.8132 72.5735 17.3713C71.4177 15.9857 69.535 15.6304 67.8264 15.5771C67.8142 15.4202 67.7938 15.1034 67.7821 14.9465Z" fill="white"/>
<path d="M15.9782 20.4386C16.6699 19.9975 17.5804 20.0804 18.1893 20.6251C18.9786 21.2706 19.9126 22.1499 19.753 23.2721C19.218 24.3379 18.3992 25.2912 17.4325 25.987C16.2177 26.5437 15.0146 25.4067 14.3347 24.5007C13.3681 22.9848 14.5623 21.1374 15.9782 20.4386Z" fill="white"/>
<path d="M21.3521 24.2728C21.8399 23.734 22.4429 23.3254 23.0725 22.973C23.6696 24.8886 22.5345 26.742 21.4024 28.1987C18.6977 31.6302 14.4824 33.2615 11.2663 36.1039C10.078 37.1105 9.37149 38.5227 8.71824 39.9025C8.665 38.4073 8.60886 36.7819 9.48973 35.491C10.4918 34.0284 11.8782 32.8915 13.0281 31.5532C11.4111 32.1661 9.70554 33.2201 7.92011 32.6161C5.46072 31.8493 4.13644 29.4481 2.88014 27.3875C2.16184 26.1262 1.21296 25.0278 0.216797 23.9856C2.09385 23.2395 4.12461 24.184 5.80067 25.0396C7.81663 26.2772 9.7262 27.802 11.1835 29.6761C9.17343 30.3305 7.46488 28.6784 5.88936 27.6924C6.05193 28.628 6.47167 29.531 7.2698 30.0847C8.61476 31.1417 10.4149 31.2157 12.0408 30.9848C12.5817 30.8456 13.0281 31.192 13.4744 31.4289C16.3447 29.3297 18.9193 26.8605 21.3521 24.2728Z" fill="white"/>
<path d="M10.7224 23.2869C12.6497 23.2691 13.8114 24.9834 14.8637 26.3453C15.1682 26.7598 15.5229 27.5918 14.8756 27.8553C14.0568 28.2905 13.0517 27.8878 12.3984 27.3253C11.2456 26.3187 10.8554 24.7524 10.7224 23.2869Z" fill="white"/>
<path d="M27.8406 26.0195C29.2831 25.5873 30.8262 25.1313 32.3337 25.4718C32.52 25.9958 32.0351 26.3689 31.7691 26.7568C29.3363 29.5724 27.9234 33.2022 25.0325 35.633C23.8293 36.693 22.1385 37.1193 20.5689 36.8262C18.9313 36.5183 17.1488 36.1038 16.058 34.727C16.9833 34.6915 17.9056 34.7389 18.8249 34.8218C21.3079 35.0853 23.9358 33.8862 25.2482 31.7338C25.529 31.2926 25.5409 30.7508 25.6236 30.2534C24.3614 30.9758 23.3623 32.1127 21.9878 32.6486C20.9059 33.1578 19.6939 33.2911 18.5145 33.1578C21.1778 30.286 24.0777 27.3607 27.8406 26.0195Z" fill="white"/>
<path d="M7.3259 51.4609C9.54292 51.464 11.7599 51.4583 13.9739 51.464C13.968 51.7572 13.9592 52.0535 13.9532 52.3524C12.9955 52.3494 12.0407 52.3494 11.083 52.3524C11.083 55.168 11.08 57.9836 11.083 60.7992C10.8524 60.7992 10.3883 60.7992 10.1577 60.7992C10.1577 57.9836 10.1548 55.1649 10.1577 52.3494C9.21773 52.3494 8.27776 52.3494 7.33775 52.3494C7.3348 52.1271 7.32886 51.6832 7.3259 51.4609Z" fill="white"/>
<path d="M20.6339 51.4583C20.8645 51.4583 21.3197 51.4609 21.5503 51.4609C21.5503 52.8347 21.5503 54.2085 21.5532 55.5823C23.244 55.5823 24.9319 55.5823 26.6227 55.5823C26.6227 54.2085 26.6227 52.8347 26.6227 51.4609C26.9361 51.4583 27.2465 51.4583 27.5627 51.4609C27.5568 54.5727 27.5568 57.6846 27.5627 60.7991C27.2465 60.796 26.9331 60.796 26.6227 60.796C26.6227 59.3486 26.6227 57.9007 26.6227 56.4528C24.9319 56.4559 23.2411 56.4559 21.5503 56.4559C21.5503 57.9007 21.5503 59.3486 21.5503 60.796C21.3227 60.7991 20.8645 60.8021 20.6369 60.8052C20.6339 57.6877 20.6339 54.5727 20.6339 51.4583Z" fill="white"/>
<path d="M37.6573 51.467C37.9736 51.4609 38.2928 51.4583 38.6121 51.4583C39.8211 54.5727 41.0242 57.6933 42.2007 60.8231C41.8607 60.7991 41.5208 60.7756 41.1838 60.7577C40.9148 60.0118 40.6429 59.2684 40.3768 58.5255C38.8959 58.5046 37.4179 58.5133 35.9369 58.5133C35.6502 59.2715 35.3605 60.0292 35.0738 60.7873C34.8255 60.7904 34.3318 60.8021 34.0865 60.8082C35.2718 57.6903 36.4867 54.5876 37.6573 51.467ZM36.2621 57.6341C37.5184 57.6371 38.7717 57.6371 40.0251 57.6371C39.3984 55.9849 38.8013 54.327 38.151 52.687C37.48 54.3183 36.9006 55.9879 36.2621 57.6341Z" fill="white"/>
<path d="M48.7424 51.4552C49.0526 51.4583 49.3659 51.4639 49.6766 51.4731C49.6675 54.5819 49.6735 57.6877 49.6735 60.7934C49.4401 60.7965 48.9728 60.7991 48.7394 60.8021C48.7424 57.6846 48.7363 54.5697 48.7424 51.4552Z" fill="white"/>
<path d="M67.1877 51.5646C68.8816 50.783 70.9005 51.7097 71.6571 53.3559C71.4649 53.4417 71.0749 53.6138 70.8796 53.6996C70.2856 52.6544 69.1211 51.8962 67.891 52.2753C66.7885 52.4173 66.1442 53.8887 66.9248 54.7358C68.2251 55.7514 70.0848 55.7187 71.3113 56.8647C72.2602 57.889 71.9587 59.7482 70.7499 60.4441C68.8521 61.6222 66.0791 60.8528 65.2044 58.7535C65.4496 58.5788 65.6951 58.4101 65.9403 58.2411C66.5139 59.4402 67.717 60.3046 69.0942 60.0619C70.3685 60.1242 71.5478 58.5875 70.6375 57.486C69.3428 56.3553 67.3474 56.459 66.1177 55.2181C65.1597 54.0282 65.7659 52.077 67.1877 51.5646Z" fill="white"/>
<path d="M78.7399 51.4552C80.1734 51.5175 81.6369 51.3132 83.0527 51.6151C85.042 52.1955 85.6599 55.0346 84.1994 56.4559C83.0379 57.7081 81.1696 57.2611 79.6562 57.3439C79.6532 58.4959 79.6532 59.6475 79.6593 60.7991C79.4258 60.7991 78.9616 60.7991 78.7282 60.7991C78.7338 57.6846 78.7134 54.5697 78.7399 51.4552ZM79.6562 52.3493C79.6532 53.7231 79.6532 55.0939 79.6562 56.4677C80.7353 56.435 81.8526 56.6067 82.9021 56.2929C84.445 55.686 84.4507 53.202 82.9551 52.5358C81.8968 52.1833 80.7501 52.3937 79.6562 52.3493Z" fill="white"/>
<path d="M93.6468 51.4609C93.9631 51.4609 94.282 51.4609 94.6014 51.467C95.7959 54.5789 97.0047 57.6847 98.1783 60.8053C97.9327 60.8022 97.4394 60.7935 97.1938 60.7874C96.907 60.0297 96.6263 59.2685 96.3426 58.5134C94.8648 58.5134 93.3865 58.5077 91.9117 58.5226C91.6249 59.2776 91.3381 60.0297 91.0574 60.7844C90.7233 60.7905 90.3923 60.7961 90.0643 60.8083C91.2644 57.6934 92.4584 54.5789 93.6468 51.4609ZM94.1198 52.7075C93.4577 54.3362 92.8841 55.9972 92.2398 57.6341C93.4928 57.6372 94.7463 57.6372 95.9998 57.6341C95.3906 55.985 94.7966 54.3301 94.1198 52.7075Z" fill="white"/>
<path d="M113.387 51.4701C114.806 51.5054 116.248 51.3281 117.65 51.6004C119.689 52.1542 120.322 55.0735 118.808 56.4943C117.641 57.6965 115.82 57.2673 114.324 57.3383C114.324 58.4899 114.321 59.6415 114.324 60.7935C114.088 60.7935 113.621 60.7935 113.384 60.7935C113.387 57.6847 113.384 54.5759 113.387 51.4701ZM114.324 52.3463C114.321 53.7201 114.324 55.0939 114.324 56.4678C115.374 56.4442 116.45 56.5863 117.478 56.3196C119.083 55.7571 119.113 53.1637 117.564 52.5154C116.517 52.2043 115.4 52.3821 114.324 52.3463Z" fill="white"/>
<path d="M126.576 51.467C126.884 51.4609 127.191 51.4583 127.498 51.4583C127.505 54.2795 127.502 57.1012 127.502 59.9259C128.935 59.9198 130.369 59.9111 131.806 59.9525C131.803 60.1625 131.794 60.583 131.791 60.7904C130.053 60.7991 128.315 60.796 126.58 60.7991C126.58 57.6877 126.58 54.5788 126.576 51.467Z" fill="white"/>
<path d="M141.368 51.4552C141.682 51.4613 141.995 51.467 142.314 51.4761C143.511 54.5788 144.691 57.6877 145.897 60.7904C145.566 60.7904 145.235 60.7934 144.907 60.7991C143.89 58.0933 142.882 55.3871 141.85 52.69C140.762 55.3605 139.79 58.0754 138.779 60.7756C138.525 60.7843 138.019 60.7991 137.765 60.8082C138.977 57.6933 140.156 54.5671 141.368 51.4552Z" fill="white"/>
<path d="M150.975 51.4609C153.189 51.467 155.403 51.4609 157.62 51.467C157.614 51.6862 157.608 52.1271 157.606 52.3463C156.657 52.3463 155.708 52.3463 154.762 52.3494C154.759 55.1649 154.762 57.9836 154.759 60.8022C154.526 60.7992 154.058 60.7935 153.822 60.7904C153.828 57.9749 153.822 55.1619 153.825 52.3463C152.876 52.3463 151.927 52.3463 150.978 52.3463C150.978 52.1245 150.975 51.6832 150.975 51.4609Z" fill="white"/>
<path d="M164.304 51.4491C164.608 51.4582 164.916 51.47 165.226 51.4848C165.22 54.5845 165.223 57.6877 165.226 60.7873C164.996 60.7904 164.534 60.7991 164.304 60.8052C164.301 57.6846 164.298 54.5671 164.304 51.4491Z" fill="white"/>
<path d="M172.678 51.4521C172.95 51.4613 173.228 51.4731 173.506 51.4879C175.217 54.025 176.947 56.5474 178.685 59.0702C178.693 56.533 178.685 53.9985 178.688 51.467C178.918 51.4639 179.376 51.4582 179.607 51.4582C179.607 54.5758 179.613 57.6964 179.604 60.8139C179.403 60.8082 178.998 60.7904 178.797 60.7812C177.065 58.265 175.362 55.7274 173.615 53.2198C173.594 55.7452 173.606 58.2737 173.606 60.8021C173.293 60.796 172.983 60.7934 172.675 60.7934C172.678 57.6785 172.675 54.5671 172.678 51.4521Z" fill="white"/>
<path d="M186.938 51.4731C187.239 51.4639 187.547 51.4582 187.857 51.4521C187.872 53.4033 187.839 55.3514 187.86 57.3025C187.866 58.1582 188.017 59.1591 188.818 59.6445C190.127 60.5002 192.486 60.1329 192.835 58.3953C193.116 56.0977 192.891 53.7675 192.965 51.4582C193.192 51.4609 193.648 51.467 193.875 51.47C193.84 53.7083 193.958 55.9526 193.828 58.1879C193.734 59.597 192.507 60.7163 191.15 60.9146C189.35 61.332 187.133 60.1834 186.988 58.2088C186.858 55.9675 186.979 53.717 186.938 51.4731Z" fill="white"/>
<path d="M201.183 51.4701C201.57 51.464 201.96 51.4609 202.354 51.4583C203.388 53.1933 204.42 54.9283 205.457 56.6603C206.504 54.9488 207.529 53.2229 208.543 51.4905C208.951 51.4731 209.359 51.4583 209.776 51.4465C209.788 54.5671 209.782 57.6847 209.779 60.8022C209.533 60.7991 209.04 60.7961 208.795 60.7935C208.791 58.1644 208.806 55.5353 208.785 52.9062C207.671 54.7445 206.595 56.601 205.472 58.4306C204.331 56.6128 203.264 54.7475 202.149 52.9118C202.129 55.5379 202.144 58.167 202.14 60.7935C201.901 60.7935 201.422 60.7904 201.18 60.7904C201.183 57.6816 201.18 54.5758 201.183 51.4701Z" fill="white"/>
</g>
<defs>
<clipPath id="clip0_4008_602">
<rect width="210" height="61" fill="white"/>
</clipPath>
</defs>
</svg>
