<svg width="210" height="40" viewBox="0 0 210 40" fill="none" xmlns="http://www.w3.org/2000/svg">
<g clip-path="url(#clip0_2223_144)">
<path d="M128.859 30.6053C128.832 20.4038 128.853 10.2023 128.85 0.000737157C130.485 0.000737157 132.12 -0.00221435 133.755 0.00369444C133.758 10.2968 133.758 20.5929 133.764 30.8889C133.814 32.307 133.817 33.8315 134.611 35.0694C135.423 36.4048 136.948 37.2734 138.512 37.3C140.026 37.3709 141.685 37.3916 142.952 36.4255C144.348 35.4623 145.017 33.7281 144.984 32.0766C144.996 28.2359 145.035 24.3922 144.964 20.5515C144.934 18.3653 143.343 16.2351 141.125 15.8747C140.349 15.6088 139.274 15.9545 138.785 15.1213C141.575 14.5895 144.706 14.8052 147.102 16.4479C149.016 17.7567 149.919 20.1024 149.967 22.3537C150.005 24.9979 149.979 27.648 149.979 30.2951C149.979 32.2952 149.454 34.4076 148.015 35.876C146.264 37.6634 143.643 38.2808 141.208 38.2218C138.299 38.1449 135.189 38.6088 132.526 37.1434C130.109 35.9469 128.838 33.217 128.859 30.6053Z" fill="#E9E1D7"/>
<path d="M47.9931 1.12045C49.9007 0.33163 52.3237 2.21062 51.7046 4.26393C51.2484 6.31723 48.3396 7.01743 46.9326 5.50773C45.5316 4.22848 46.1417 1.61384 47.9931 1.12045Z" fill="#E9E1D7"/>
<path d="M169.132 1.13523C171.051 0.307999 173.504 2.20176 172.855 4.28166C172.396 6.41178 169.292 7.0322 167.968 5.35706C166.73 4.03349 167.39 1.64043 169.132 1.13523Z" fill="#E9E1D7"/>
<path d="M14.1216 3.69963C14.5718 2.31697 16.2661 1.14704 17.685 1.8945C18.9084 2.66855 18.3189 4.31415 17.8509 5.37478C17.4095 6.52404 15.9433 6.35859 14.9539 6.58017C14.4918 5.70271 13.8106 4.73958 14.1216 3.69963Z" fill="#E9E1D7"/>
<path d="M11.6956 7.84466C11.6956 6.73971 12.4509 5.8209 13.2684 5.15617C13.9468 6.20793 14.5362 7.44582 14.3318 8.73393C14.2785 9.18891 13.9497 9.55821 13.5587 9.77388C12.4687 9.94819 11.8259 8.75757 11.6956 7.84466Z" fill="#E9E1D7"/>
<path d="M19.0563 6.0277C19.5954 4.86071 21.3223 5.40728 21.7962 6.37337C22.6463 7.50195 21.968 8.89347 21.3015 9.91864C20.0752 9.00869 18.8489 7.67625 19.0563 6.0277Z" fill="#E9E1D7"/>
<path d="M16.2927 8.80485C18.0137 8.2051 20.1464 9.86253 19.862 11.6913C19.394 12.8908 17.913 13.1242 16.7755 13.0828C15.7032 13.0858 14.2844 12.7962 13.926 11.6263C13.7305 10.2289 15.1434 9.24801 16.2927 8.80485Z" fill="#E9E1D7"/>
<path d="M9.92721 14.6723C9.20149 12.9439 9.67247 10.9852 9.95091 9.20072C11.272 10.1284 12.4924 11.4697 12.6583 13.1389C12.7442 14.0666 12.756 15.1272 12.1458 15.8983C11.2276 16.6753 10.3863 15.3665 9.92721 14.6723Z" fill="#E9E1D7"/>
<path d="M20.6737 12.879C21.3905 11.6647 21.9 10.087 23.3721 9.59957C24.24 11.0029 24.2104 12.8878 23.1796 14.2025C22.7501 14.7048 22.291 15.3636 21.5771 15.4375C20.5256 15.1154 20.0635 13.7948 20.6737 12.879Z" fill="#E9E1D7"/>
<path d="M15.7152 14.1611C17.1044 13.52 18.5618 14.4773 19.5629 15.3961C20.7448 16.4094 20.4486 18.3328 19.3882 19.3195C18.5647 19.2782 17.8657 18.767 17.0748 18.5957C16.0114 18.4421 15.2294 19.8365 14.2252 19.5263C12.6375 17.8778 13.6772 14.9411 15.7152 14.1611Z" fill="#E9E1D7"/>
<path d="M24.0061 14.7373C24.4919 14.5482 24.7259 15.1361 24.8177 15.5054C25.422 17.6119 24.1601 19.6977 22.7472 21.169C22.1962 21.8485 20.7863 21.8692 20.6382 20.844C20.6145 19.4347 21.5149 18.25 22.2288 17.1067C22.8005 16.306 23.2211 15.3606 24.0061 14.7373Z" fill="#E9E1D7"/>
<path d="M46.4944 14.7461C48.1384 14.7491 49.7794 14.7491 51.4204 14.7461C51.4233 22.4778 51.4233 30.2094 51.4204 37.9411C49.7794 37.9411 48.1354 37.9411 46.4944 37.9381C46.4973 30.2065 46.4944 22.4778 46.4944 14.7461Z" fill="#E9E1D7"/>
<path d="M167.674 14.7461C169.318 14.7491 170.962 14.7432 172.606 14.752C172.677 22.4748 172.562 30.2006 172.642 37.9263C170.983 37.9499 169.327 37.9411 167.671 37.9411C167.677 30.2094 167.671 22.4778 167.674 14.7461Z" fill="#E9E1D7"/>
<path d="M186.587 14.7639C189.484 14.3296 192.642 14.6516 195.056 16.439C199.384 13.6589 204.727 14.758 209.573 14.5482C209.573 14.8023 209.57 15.3134 209.57 15.5675C207.168 15.4079 204.742 15.3754 202.358 15.7181C200.195 16.2647 198.332 18.0491 197.817 20.2354C197.476 21.4881 197.565 22.7998 197.562 24.085C197.568 28.7234 197.565 33.3618 197.562 37.9972C195.915 38.0002 194.271 38.0002 192.624 38.0002C192.624 32.3721 192.621 26.7439 192.627 21.1188C192.636 19.3905 192.067 17.5144 190.595 16.4774C189.437 15.6059 187.947 15.4759 186.555 15.3695C186.561 15.2188 186.578 14.9145 186.587 14.7639Z" fill="#E9E1D7"/>
<path d="M8.76024 14.7638C10.656 16.3474 12.371 18.3859 13.0079 20.8085C13.5174 22.1085 11.4765 22.7053 10.8693 21.7037C9.46225 19.7124 8.15004 17.2751 8.76024 14.7638Z" fill="#E9E1D7"/>
<path d="M67.9224 14.9145C70.8549 14.5571 74.0569 14.8082 76.4917 16.634C78.8822 14.7727 82.0339 14.7107 84.9249 14.8023C87.6056 14.6841 90.4788 14.9352 92.6738 16.6281C94.762 15.0445 97.4635 14.693 100.014 14.7993C102.908 14.7698 106.098 14.628 108.554 16.4331C110.518 17.8039 111.362 20.2768 111.362 22.5901C111.362 27.7248 111.362 32.8595 111.362 37.9943C109.7 38.0179 108.038 38.0356 106.376 38.0534C106.371 33.0988 106.371 28.1443 106.376 23.1898C106.341 21.4969 106.548 19.6741 105.701 18.1289C104.961 16.699 103.379 15.8452 101.803 15.7211C100.467 15.6295 99.0453 15.6236 97.8278 16.2647C96.5867 16.8467 95.6773 18.0373 95.4019 19.3727C95.0553 21.1158 95.1471 22.9032 95.1382 24.6699C95.1353 29.1104 95.1442 33.5538 95.1323 37.9972C93.4883 38.0149 91.8414 38.0386 90.1974 38.0504C90.2004 33.0959 90.1945 28.1414 90.2004 23.1839C90.1885 21.6062 90.2952 19.9518 89.6583 18.4687C88.9978 16.9383 87.4397 15.9043 85.7987 15.7388C84.0451 15.5645 82.0724 15.6531 80.6979 16.8969C79.2998 18.0757 78.971 19.9902 78.9622 21.7215C78.9503 27.1457 78.9651 32.57 78.9592 37.9972C77.3211 38.0179 75.6861 38.0356 74.051 38.0563C74.0273 32.9038 74.0125 27.7514 74.0184 22.5989C74.0806 20.7849 73.9828 18.773 72.7239 17.3342C71.5658 15.9515 69.6789 15.597 67.9668 15.5438C67.9549 15.3872 67.9342 15.0711 67.9224 14.9145Z" fill="#E9E1D7"/>
<path d="M16.0115 20.3949C16.7046 19.9547 17.6169 20.0374 18.2271 20.5811C19.018 21.2251 19.954 22.1026 19.7941 23.2223C19.2579 24.2859 18.4374 25.2372 17.4688 25.9315C16.2514 26.4869 15.0458 25.3524 14.3645 24.4484C13.3959 22.9357 14.5926 21.0922 16.0115 20.3949Z" fill="#E9E1D7"/>
<path d="M21.3964 24.2209C21.8851 23.6832 22.4894 23.2755 23.1203 22.9239C23.7187 24.8354 22.5812 26.6848 21.4467 28.1384C18.7364 31.5625 14.5124 33.1904 11.2897 36.0266C10.0989 37.0311 9.39094 38.4404 8.73631 39.8171C8.683 38.3251 8.62672 36.7032 9.50943 35.4151C10.5136 33.9556 11.9028 32.8211 13.0551 31.4857C11.4348 32.0973 9.72566 33.149 7.93654 32.5464C5.47207 31.7812 4.14504 29.3852 2.88615 27.3289C2.16635 26.0703 1.21552 24.9742 0.217285 23.9343C2.09823 23.1898 4.1332 24.1322 5.81271 24.9861C7.83287 26.221 9.74639 27.7425 11.2067 29.6126C9.19248 30.2656 7.48038 28.617 5.90158 27.6332C6.06449 28.5668 6.48511 29.4679 7.28488 30.0203C8.63264 31.0751 10.4366 31.1489 12.0657 30.9185C12.6078 30.7796 13.0551 31.1253 13.5023 31.3616C16.3786 29.267 18.9586 26.803 21.3964 24.2209Z" fill="#E9E1D7"/>
<path d="M10.7446 23.2371C12.6759 23.2193 13.84 24.9299 14.8945 26.2889C15.1996 26.7026 15.5551 27.5327 14.9064 27.7957C14.0859 28.23 13.0788 27.8282 12.4241 27.2669C11.2689 26.2624 10.8779 24.6995 10.7446 23.2371Z" fill="#E9E1D7"/>
<path d="M27.8983 25.964C29.3438 25.5326 30.89 25.0776 32.4007 25.4174C32.5873 25.9403 32.1015 26.3126 31.8349 26.6996C29.3971 29.5092 27.9812 33.1313 25.0843 35.5569C23.8787 36.6146 22.1844 37.04 20.6115 36.7475C18.9705 36.4402 17.1843 36.0266 16.0913 34.6528C17.0184 34.6174 17.9426 34.6646 18.8638 34.7474C21.352 35.0103 23.9853 33.8138 25.3005 31.6659C25.5819 31.2257 25.5938 30.6851 25.6767 30.1887C24.4119 30.9096 23.4107 32.0441 22.0333 32.5788C20.9492 33.087 19.7347 33.22 18.5528 33.087C21.2217 30.2212 24.1275 27.3023 27.8983 25.964Z" fill="#E9E1D7"/>
</g>
<defs>
<clipPath id="clip0_2223_144">
<rect width="210" height="40" fill="white"/>
</clipPath>
</defs>
</svg>
