<svg width="26" height="20" viewBox="0 0 61 48" fill="none" xmlns="http://www.w3.org/2000/svg">
    <path fill-rule="evenodd" clip-rule="evenodd" d="M61 18.8998C61 29.3379 52.5542 37.7997 42.1359 37.7997C31.7175 37.7997 23.2717 29.3379 23.2717 18.8998C23.2717 8.46175 31.7175 0 42.1359 0C52.5542 0 61 8.46175 61 18.8998Z" fill="#F79F1A"/>
    <path fill-rule="evenodd" clip-rule="evenodd" d="M37.7283 18.8998C37.7283 29.3379 29.2825 37.7997 18.8641 37.7997C8.44576 37.7997 0 29.3379 0 18.8998C0 8.46175 8.44576 0 18.8641 0C29.2825 0 37.7283 8.46175 37.7283 18.8998Z" fill="#EA001B"/>
    <path fill-rule="evenodd" clip-rule="evenodd" d="M30.5001 4.02173C26.0986 7.48168 23.2733 12.8582 23.2733 18.8981C23.2733 24.9379 26.0986 30.3185 30.5001 33.7785C34.9015 30.3185 37.7269 24.9379 37.7269 18.8981C37.7269 12.8582 34.9015 7.48168 30.5001 4.02173Z" fill="#FF5F01"/>
    <path d="M60.9646 28.9279V28.2533H60.7884L60.5858 28.7172L60.3832 28.2533H60.2071V28.9279H60.3314V28.4191L60.5214 28.8576H60.6503L60.8402 28.4179V28.9279H60.9646ZM59.8491 28.9279V28.3684H60.0747V28.2544H59.5003V28.3684H59.7259V28.9279H59.8491Z" fill="#F79F1A"/>
    <path d="M4.19643 47.1494H3.12598V42.154H4.17544V42.7627C4.17544 42.7627 5.09721 42.0187 5.64469 42.028C6.70919 42.0461 7.34483 42.9516 7.34483 42.9516C7.34483 42.9516 7.86045 42.028 9.02397 42.028C10.7446 42.028 10.997 43.6022 10.997 43.6022V47.1284H9.96849V44.022C9.96849 44.022 9.97218 43.0775 8.85606 43.0775C7.70187 43.0775 7.5967 44.022 7.5967 44.022V47.1284H6.52624V44.001C6.52624 44.001 6.42341 43.0145 5.45579 43.0145C4.19908 43.0145 4.17544 44.022 4.17544 44.022L4.19643 47.1494Z" fill="black"/>
    <path d="M36.75 42.0272C36.2025 42.0179 35.2808 42.7618 35.2808 42.7618V42.1544H34.2302V47.1487H35.3013L35.2808 44.0216C35.2808 44.0216 35.3045 43.0162 36.5612 43.0162C36.7946 43.0162 36.9758 43.0727 37.1193 43.1598V43.1557L37.4681 42.1831C37.2576 42.0945 37.0183 42.0317 36.75 42.0272Z" fill="black"/>
    <path d="M51.8293 42.0272C51.2818 42.0179 50.3601 42.7618 50.3601 42.7618V42.1544H49.3096V47.1487H50.3807L50.3601 44.0216C50.3601 44.0216 50.3838 43.0162 51.6405 43.0162C51.8739 43.0162 52.0552 43.0727 52.1987 43.1598V43.1557L52.5475 42.1831C52.337 42.0946 52.0976 42.0318 51.8293 42.0272V42.0272Z" fill="black"/>
    <path d="M14.4581 42.0067C12.8561 42.0067 12.0083 43.4466 12.004 44.6496C11.9996 45.8826 12.9692 47.3047 14.5033 47.3047C15.3982 47.3047 16.1335 46.644 16.1335 46.644L16.1315 47.1529H17.1852V42.1525H16.1278V42.7823C16.1278 42.7823 15.4374 42.0067 14.4581 42.0067H14.4581ZM14.6633 43.0245C15.524 43.0245 16.2228 43.7731 16.2228 44.6947C16.2228 45.6163 15.524 46.3609 14.6633 46.3609C13.8026 46.3609 13.108 45.6163 13.108 44.6947C13.108 43.7731 13.8026 43.0245 14.6633 43.0245Z" fill="black"/>
    <path d="M45.1864 42.0067C43.5844 42.0067 42.7366 43.4466 42.7323 44.6496C42.7279 45.8826 43.6975 47.3047 45.2315 47.3047C46.1265 47.3047 46.8617 46.644 46.8617 46.644L46.8598 47.1529H47.9135V42.1525H46.8561V42.7823C46.8561 42.7823 46.1656 42.0067 45.1864 42.0067H45.1864ZM45.3916 43.0245C46.2523 43.0245 46.951 43.7731 46.951 44.6947C46.951 45.6163 46.2523 46.3609 45.3916 46.3609C44.5309 46.3609 43.8362 45.6163 43.8362 44.6947C43.8362 43.7731 44.5309 43.0245 45.3916 43.0245Z" fill="black"/>
    <path d="M55.3033 42.0066C53.7013 42.0066 52.8535 43.4465 52.8493 44.6495C52.8449 45.8825 53.8144 47.3047 55.3485 47.3047C56.2435 47.3047 56.9787 46.6439 56.9787 46.6439L56.9767 47.1528H58.0304V40.1785H56.973V42.7823C56.973 42.7823 56.2826 42.0066 55.3033 42.0066H55.3033ZM55.5085 43.0244C56.3692 43.0244 57.068 43.7731 57.068 44.6946C57.068 45.6162 56.3692 46.3608 55.5085 46.3608C54.6478 46.3608 53.9532 45.6162 53.9532 44.6946C53.9532 43.7731 54.6478 43.0244 55.5085 43.0244Z" fill="black"/>
    <path d="M20.4001 47.3174C19.3087 47.3174 18.3011 46.6457 18.3011 46.6457L18.7629 45.9321C18.7629 45.9321 19.7162 46.3729 20.4001 46.3729C20.8444 46.3729 21.5875 46.2294 21.5965 45.7852C21.6059 45.3157 20.3476 45.1765 20.3476 45.1765C20.3476 45.1765 18.4691 45.1508 18.4691 43.6023C18.4691 42.6284 19.4073 42.0071 20.61 42.0071C21.3049 42.0071 22.604 42.6158 22.604 42.6158L22.0792 43.4343C22.0792 43.4343 21.0762 43.0336 20.547 43.0146C20.1001 42.9985 19.5605 43.2124 19.5605 43.6023C19.5605 44.6614 22.6879 43.5197 22.6879 45.6592C22.6879 47.0628 21.4142 47.3174 20.4001 47.3174V47.3174Z" fill="black"/>
    <path d="M24.4264 40.7058V42.1586H23.4949V43.2091H24.4264V45.7207C24.4264 45.7207 24.344 47.4196 26.1706 47.4196C26.6756 47.4196 27.6643 47.0462 27.6643 47.0462L27.2417 45.9546C27.2417 45.9546 26.8484 46.29 26.4045 46.2788C25.5603 46.2575 25.5837 45.7166 25.5837 45.7166V43.2091H27.3237V42.1586H25.5837V40.7058H24.4264Z" fill="black"/>
    <path d="M30.7667 42.0684C29.0489 42.0684 28.1907 43.4832 28.1977 44.7112C28.205 45.9741 28.9793 47.3951 30.8693 47.3951C31.6783 47.3951 32.8145 46.6852 32.8145 46.6852L32.3262 45.8357C32.3262 45.8357 31.5508 46.3856 30.8693 46.3856C29.5049 46.3856 29.4166 45.0518 29.4166 45.0518H33.069C33.069 45.0518 33.3414 42.0684 30.7667 42.0684ZM30.6108 43.0492C30.6513 43.0469 30.6947 43.0492 30.738 43.0492C32.0234 43.0492 32.0143 44.2639 32.0143 44.2639H29.4166C29.4166 44.2639 29.3551 43.1206 30.6108 43.0492Z" fill="black"/>
    <path d="M41.6309 45.8228L42.1207 46.8023C42.1207 46.8023 41.3444 47.3069 40.4733 47.3069C38.6697 47.3069 37.6682 45.9495 37.6682 44.6651C37.6682 42.6465 39.262 42.053 40.3397 42.053C41.318 42.053 42.1652 42.617 42.1652 42.617L41.6161 43.5965C41.6161 43.5965 41.2832 43.0771 40.31 43.0771C39.3385 43.0771 38.8259 43.9147 38.8259 44.7096C38.8259 45.6005 39.4226 46.3571 40.3249 46.3571C41.0327 46.3571 41.6309 45.8228 41.6309 45.8228V45.8228Z" fill="black"/>
    <path d="M60.2394 46.4637C60.0911 46.4674 59.9689 46.5166 59.8729 46.6113C59.7768 46.7061 59.7271 46.8246 59.7238 46.967C59.7271 47.1083 59.7768 47.2266 59.8729 47.3218C59.9689 47.417 60.0911 47.4665 60.2394 47.4703C60.3843 47.4665 60.5049 47.417 60.6012 47.3218C60.6976 47.2266 60.7476 47.1083 60.7513 46.967C60.7477 46.8246 60.6978 46.7061 60.6017 46.6113C60.5056 46.5166 60.3848 46.4674 60.2394 46.4637ZM60.2394 47.3593C60.1264 47.3565 60.0332 47.3183 59.9598 47.2446C59.8864 47.1709 59.8485 47.0783 59.8459 46.967C59.8485 46.8552 59.8864 46.7627 59.9598 46.6896C60.0332 46.6165 60.1264 46.5786 60.2394 46.576C60.35 46.5786 60.4417 46.6165 60.5146 46.6896C60.5874 46.7627 60.6252 46.8552 60.6279 46.967C60.6252 47.0783 60.5874 47.1709 60.5146 47.2446C60.4417 47.3183 60.35 47.3565 60.2394 47.3593V47.3593ZM60.269 46.7314H60.0531V47.1989H60.153V47.0238H60.1987L60.3405 47.1989H60.4602L60.3072 47.0225C60.355 47.0165 60.3917 47.0011 60.4174 46.9761C60.4432 46.9512 60.4562 46.9193 60.4565 46.8807C60.4561 46.8345 60.4398 46.7982 60.4076 46.7718C60.3753 46.7454 60.3291 46.7319 60.269 46.7314V46.7314ZM60.2677 46.819C60.2945 46.819 60.3156 46.8242 60.3308 46.8346C60.346 46.8449 60.3538 46.8603 60.3541 46.8807C60.3538 46.9016 60.346 46.9174 60.3308 46.9278C60.3156 46.9383 60.2945 46.9436 60.2677 46.9436H60.153V46.819L60.2677 46.819Z" fill="black"/>
</svg>
