<svg width="32" height="20" viewBox="0 0 75 48" fill="none" xmlns="http://www.w3.org/2000/svg">
    <path d="M14.5646 0H33.1303C35.7228 0 37.3344 2.10953 36.7283 4.70924L28.0856 41.8155C27.4769 44.4148 24.8824 46.5231 22.2908 46.5231H3.72515C1.13066 46.5231 -0.479912 44.4148 0.128489 41.8155L8.77279 4.70924C9.37858 2.10953 11.9701 0 14.5646 0Z" fill="#ED1C24"/>
    <path d="M31.5998 0H50.1641C52.7583 0 54.3695 2.10953 53.7608 4.70924L45.1165 41.8155C44.5078 44.4148 41.9162 46.5231 39.3191 46.5231H20.7577C18.1606 46.5231 16.5523 44.4148 17.1607 41.8155L25.8027 4.70924C26.4111 2.10953 29.0056 0 31.5998 0Z" fill="#00569E"/>
    <path d="M52.1084 0H70.6711C73.2656 0 74.8765 2.10953 74.2681 4.70924L65.6267 41.8155C65.018 44.4148 62.4239 46.5231 59.829 46.5231H41.2637C38.6692 46.5231 37.0583 44.4148 37.667 41.8155L46.3084 4.70924C46.9168 2.10953 49.5113 0 52.1084 0Z" fill="#00898E"/>
    <path fill-rule="evenodd" clip-rule="evenodd" d="M54.8584 27.3929L53.1062 34.8777H53.712L53.3456 36.4313H52.7394L52.628 36.9055H50.4765L50.5879 36.4313H46.2141L46.5564 34.9986L47.002 34.9917L48.7812 27.3929L49.1346 25.8569H51.3321L51.1585 26.6353C51.1585 26.6353 51.7125 26.2103 52.2558 26.0677C52.802 25.925 55.983 25.8693 55.983 25.8693L55.6137 27.3929H54.8584ZM50.9872 27.3929L50.5387 29.3083C50.5387 29.3083 51.1692 29.0123 51.5197 28.9172C51.8728 28.8234 52.4108 28.7869 52.4108 28.7869L52.7342 27.3929H50.9872ZM50.3136 30.262L49.8489 32.2468C49.8489 32.2468 50.4898 31.9058 50.8436 31.8103C51.194 31.7156 51.734 31.6556 51.734 31.6556L52.0659 30.262H50.3136ZM49.2297 34.9005H50.979L51.3731 33.2147H49.6235L49.2297 34.9005Z" fill="white"/>
    <path fill-rule="evenodd" clip-rule="evenodd" d="M56.1049 25.8729H58.4466L58.474 26.7445C58.4603 26.8858 58.5854 26.9568 58.8596 26.9617H59.2534L58.9003 28.4046H57.6347C56.5371 28.4834 56.1211 28.0105 56.1485 27.4822L56.1049 25.8729Z" fill="white"/>
    <path fill-rule="evenodd" clip-rule="evenodd" d="M56.503 32.7143H54.2671L54.5661 31.4294H57.117L57.4023 30.2533H54.8814L55.2208 28.8092H62.2353L61.893 30.2533H59.5375L59.2525 31.4294H61.6106L61.309 32.7143H58.7607L58.3396 33.2566H59.3747L59.7414 34.8753C59.7707 35.0346 59.7873 35.1394 59.8417 35.2055C59.8961 35.2629 60.2111 35.2915 60.3905 35.2915H60.7032L60.3339 36.8708H59.5375C59.4154 36.8708 59.2307 36.8656 58.9809 36.8435C58.7386 36.8249 58.5572 36.6862 58.3911 36.6099C58.239 36.5396 58.0081 36.3588 57.9348 36.0585L57.5788 34.445L56.5304 36.0393C56.1907 36.5341 55.7181 36.9174 54.8784 36.9174H53.2487L53.5773 35.5179H54.2023C54.3814 35.5179 54.5387 35.4449 54.6501 35.3866C54.7645 35.3332 54.8651 35.2723 54.9765 35.1023L56.503 32.7143Z" fill="white"/>
    <path fill-rule="evenodd" clip-rule="evenodd" d="M31.8111 29.1981H37.7241L37.3848 30.611H35.0101L34.7209 31.8144H37.1346L36.7842 33.2758H34.3701L33.9018 35.2248C33.8474 35.444 34.4926 35.4736 34.7264 35.4736L35.9253 35.3134L35.54 36.9191H32.811C32.5934 36.9191 32.4267 36.8943 32.1863 36.8347C31.9525 36.779 31.8453 36.6745 31.7326 36.5168C31.6251 36.3647 31.4649 36.2315 31.5463 35.8925L32.1687 33.3006H30.8236L31.1809 31.8144H32.5286L32.8149 30.611H31.473L31.8111 29.1981Z" fill="white"/>
    <path fill-rule="evenodd" clip-rule="evenodd" d="M35.6413 26.6608H38.07L37.7166 28.132H34.401L34.0587 28.4485C33.9187 28.5951 33.8578 28.5339 33.6663 28.6387C33.4816 28.7365 33.0999 28.9211 32.5889 28.9211H31.5271L31.8678 27.5027H32.186C32.4573 27.5027 32.641 27.4786 32.7318 27.4177C32.8296 27.3565 32.9396 27.2028 33.0592 26.9595L33.5995 25.8514H36.0162L35.6413 26.6608Z" fill="white"/>
    <path fill-rule="evenodd" clip-rule="evenodd" d="M39.0558 25.8649H41.126L40.8869 26.9078C40.8869 26.9078 41.509 26.385 41.9571 26.2098C42.4027 26.033 43.4241 25.8838 43.4241 25.8838L46.7654 25.8623L45.8635 29.6596C45.7088 30.3094 45.5131 30.7302 45.3883 30.9243C45.2688 31.1145 45.1359 31.2845 44.8529 31.4447C44.5761 31.5913 44.3259 31.6757 44.0924 31.6998C43.867 31.719 43.5302 31.7258 43.0625 31.731H39.8408L39.121 34.7372C39.0477 35.0346 39.0174 35.1743 39.0773 35.2531C39.132 35.3264 39.246 35.4085 39.3978 35.4085L40.8081 35.2723L40.4251 36.9197H38.8305C38.3279 36.9197 37.9556 36.9132 37.7003 36.8887C37.4531 36.8695 37.1977 36.8887 37.0212 36.7526C36.8606 36.6253 36.6271 36.4569 36.6216 36.2803C36.6271 36.1159 36.676 35.8459 36.7574 35.4759L39.0558 25.8649ZM43.685 29.7062H40.2971L40.1313 30.3879H43.0655C43.4107 30.3524 43.4837 30.3957 43.511 30.3836L43.685 29.7062ZM40.4436 29.0893C40.4436 29.0893 41.0657 28.4835 42.191 28.2852C42.4463 28.2389 44.0628 28.2526 44.0628 28.2526L44.2552 27.4403H40.8377L40.4436 29.0893Z" fill="white"/>
    <path fill-rule="evenodd" clip-rule="evenodd" d="M45.4491 31.996L45.3188 32.9102C45.2478 33.1913 45.1964 33.4072 44.9928 33.5945C44.7782 33.7873 44.5228 33.986 43.9034 33.986L42.7624 34.0306L42.8113 35.0601C42.8198 35.3591 42.893 35.3282 42.9419 35.3751C42.996 35.4252 43.0474 35.4477 43.0995 35.4611L43.4633 35.4477L44.5502 35.3809L44.1939 36.8925H42.939C42.0534 36.8925 41.4014 36.8655 41.176 36.7052C40.9558 36.56 40.9151 36.3929 40.9043 36.1118L40.736 32.0868H42.7436L42.7677 32.9102H43.2487C43.4171 32.9102 43.5259 32.8936 43.5939 32.8503C43.6509 32.8066 43.6887 32.7389 43.7161 32.636L43.8682 31.996H45.4491Z" fill="white"/>
    <path d="M16.7611 11.8482C16.6907 12.1807 15.4003 18.1221 15.3974 18.1247C15.1202 19.3229 14.9193 20.187 14.2376 20.741C13.8409 21.0589 13.3927 21.2149 12.8657 21.2149C12.0206 21.2149 11.5262 20.7928 11.4395 19.9952L11.4229 19.7248C11.4229 19.7248 11.6812 18.1139 11.6838 18.1058C11.6838 18.1058 13.0393 12.6888 13.2784 11.969C13.2865 11.9309 13.2921 11.9094 13.3002 11.8847C10.6676 11.9176 10.198 11.8928 10.1654 11.8466C10.1517 11.9039 10.081 12.2407 10.081 12.2407L8.70107 18.3491L8.58154 18.8663L8.35583 20.5563C8.35583 21.0602 8.45387 21.4715 8.65222 21.8142C9.27951 22.917 11.0754 23.0827 12.0886 23.0827C13.3953 23.0827 14.6206 22.7974 15.4518 22.2991C16.8861 21.4445 17.2666 20.1108 17.6033 18.9344L17.7584 18.3286C17.7584 18.3286 19.1517 12.6996 19.3911 11.9677C19.3992 11.9283 19.4044 11.9094 19.41 11.8847C17.5056 11.9133 16.9405 11.8902 16.7611 11.8482Z" fill="white"/>
    <path d="M24.478 23.0204C23.5406 23.0096 23.2175 23.0096 22.1255 23.0585L22.0818 22.9852C22.1769 22.5637 22.2828 22.1566 22.3779 21.7355L22.5082 21.1717C22.712 20.2819 22.9104 19.2618 22.9322 18.9482C22.9537 18.758 23.0136 18.288 22.4785 18.288C22.2502 18.288 22.0111 18.3968 21.7721 18.5052C21.6418 18.9726 21.3754 20.2956 21.2506 20.8958C20.9816 22.1687 20.9624 22.3126 20.8432 22.9363L20.7641 23.0204C19.8026 23.0096 19.4681 23.0096 18.3627 23.0585L18.3109 22.9744C18.4959 22.2162 18.6806 21.4596 18.8545 20.703C19.3215 18.6616 19.4303 17.8805 19.558 16.8481L19.645 16.7751C20.7263 16.6308 20.9842 16.5957 22.1577 16.355L22.2531 16.4625L22.0763 17.1226C22.272 17.0031 22.4648 16.8836 22.6687 16.7751C23.2175 16.5113 23.8311 16.427 24.1653 16.427C24.6763 16.427 25.2385 16.5712 25.472 17.1604C25.6977 17.6874 25.5482 18.3368 25.2548 19.6217L25.1056 20.2712C24.804 21.7 24.7548 21.9638 24.592 22.9363L24.478 23.0204Z" fill="white"/>
    <path d="M28.267 23.0158C27.7019 23.0106 27.3404 23.0077 26.9873 23.0119C26.6369 23.0158 26.2945 23.0292 25.7702 23.0539L25.7402 23.0106L25.7076 22.9699C25.849 22.4263 25.9249 22.2361 25.9985 22.0459C26.0688 21.8544 26.1369 21.6616 26.262 21.1141C26.4248 20.4037 26.5255 19.8986 26.5987 19.4651C26.6724 19.0348 26.7183 18.6759 26.7701 18.2619L26.8134 18.2264L26.8596 18.1883C27.4192 18.1111 27.7752 18.0594 28.1364 18.0007C28.5005 17.9424 28.8698 17.876 29.4541 17.7672L29.4919 17.8649C29.3831 18.3092 29.2747 18.756 29.1688 19.2006C29.0626 19.6445 28.9597 20.0914 28.8561 20.5356C28.6444 21.4756 28.563 21.8312 28.5142 22.0732C28.465 22.3149 28.4513 22.4455 28.3702 22.9318L28.3184 22.9748L28.267 23.0158Z" fill="white"/>
    <path d="M36.6554 19.806C36.984 18.3674 36.7342 17.6965 36.4108 17.2878C35.9216 16.6654 35.0676 16.4618 34.1736 16.4618C33.6385 16.4618 32.3647 16.5214 31.3674 17.4454C30.6558 18.1026 30.319 19.0016 30.1206 19.8656C29.9197 20.7418 29.6858 22.3364 31.1365 22.9109C31.5928 23.104 32.2341 23.164 32.6497 23.164C33.7199 23.164 34.8123 22.865 35.6311 21.9889C36.2669 21.2935 36.5551 20.2379 36.6554 19.806ZM34.2173 19.6986C34.1629 19.9389 33.9538 20.8492 33.6632 21.2323C33.4701 21.5091 33.2284 21.6775 32.9676 21.6775C32.8943 21.6775 32.4324 21.6775 32.4214 20.9932C32.4162 20.6574 32.4842 20.3099 32.5709 19.9265C32.8181 18.8469 33.1089 17.9369 33.8479 17.9369C34.4319 17.9369 34.4671 18.6078 34.2173 19.6986Z" fill="white"/>
    <path d="M57.238 21.3408C57.0452 21.6137 56.5915 21.7821 56.3303 21.7821C56.2573 21.7821 55.7955 21.7821 55.7844 21.103C55.7792 20.7688 55.8469 20.4236 55.9339 20.0435C56.1808 18.973 56.4716 18.0685 57.2106 18.0685C57.6917 18.0685 57.9252 18.5401 57.8604 19.3074C57.822 19.4797 57.7894 19.6357 57.7431 19.8396C57.6643 20.1741 57.5721 20.5027 57.4907 20.8353C57.4145 21.031 57.3328 21.2157 57.238 21.3408ZM60.9327 16.5309C59.7644 16.7439 59.4576 16.7918 58.3379 16.9468L58.2512 17.0171C58.2375 17.1122 58.2268 17.1992 58.2134 17.2904C58.0392 17.0048 57.7946 16.755 57.4008 16.6042C56.9009 16.4114 55.7277 16.6641 54.7304 17.5796C54.0188 18.2343 53.6817 19.1267 53.4837 19.9836C53.2827 20.8532 53.0489 22.4367 54.4995 23.0073C54.9558 23.1979 55.3773 23.2546 55.7929 23.2327C56.2381 23.2099 56.6459 22.9761 57.0289 22.6556C56.9931 22.7914 56.9608 22.9285 56.9253 23.0643L56.9908 23.149C58.0366 23.0998 58.3571 23.0998 59.4846 23.1132L59.5879 23.0288C59.7507 22.0645 59.9087 21.1248 60.338 19.268C60.5415 18.3864 60.7558 17.506 60.9705 16.626L60.9327 16.5309Z" fill="white"/>
    <path d="M43.0418 23.0204C42.1045 23.0096 41.784 23.0096 40.6893 23.0585L40.6457 22.9852C40.7434 22.5637 40.8466 22.1566 40.9447 21.7355L41.0723 21.1717C41.2759 20.2819 41.4746 19.2618 41.4987 18.9482C41.5175 18.758 41.5775 18.288 41.042 18.288C40.8167 18.288 40.5779 18.3968 40.3385 18.5052C40.2086 18.9726 39.9422 20.2956 39.8145 20.8958C39.5484 22.1687 39.5262 22.3126 39.407 22.9363L39.3282 23.0204C38.3687 23.0096 38.0349 23.0096 36.9291 23.0585L36.8777 22.9744C37.0624 22.2162 37.247 21.4596 37.4209 20.703C37.8883 18.6616 37.9942 17.8805 38.1245 16.8481L38.2114 16.7751C39.2901 16.6308 39.5507 16.5957 40.7219 16.355L40.8167 16.4625L40.6431 17.1226C40.8359 17.0031 41.0313 16.8836 41.2322 16.7751C41.781 16.5113 42.3953 16.427 42.7291 16.427C43.2402 16.427 43.8026 16.5712 44.0388 17.1604C44.2612 17.6874 44.1117 18.3368 43.8186 19.6217L43.672 20.2712C43.3675 21.7 43.319 21.9638 43.1558 22.9363L43.0418 23.0204Z" fill="white"/>
    <path d="M52.1384 15.3297C51.9703 16.071 51.4948 16.696 50.8727 17.0031C50.3565 17.2598 49.7341 17.2816 49.0879 17.2816H48.6668L48.7045 17.1119C48.7045 17.1119 49.4709 13.7676 49.468 13.7784L49.4898 13.6087L49.5061 13.4742L49.8106 13.5042C49.8106 13.5042 51.3941 13.6452 51.4348 13.6533C52.0595 13.8924 52.3233 14.5171 52.1384 15.3297ZM51.128 11.8359C51.1254 11.8359 50.3509 11.8522 50.3509 11.8522C48.3326 11.8724 47.5229 11.8672 47.1887 11.8252C47.1588 11.9692 47.1044 12.2339 47.1044 12.2352C47.1044 12.2352 46.3843 15.5876 46.3843 15.5902C46.3843 15.5902 44.6542 22.7191 44.5728 23.0532C46.3328 23.0285 47.0585 23.0272 47.3601 23.0611C47.4304 22.7243 47.8408 20.7385 47.8437 20.7343C47.8437 20.7343 48.1938 19.2713 48.2157 19.2253C48.2157 19.2253 48.3218 19.0703 48.4358 19.0107H48.5935C50.1122 19.0107 51.8315 19.0107 53.1763 18.019C54.0893 17.3454 54.7166 16.3455 54.9963 15.1284C55.067 14.8271 55.1217 14.4712 55.1217 14.1126C55.1217 13.6533 55.0289 13.1873 54.757 12.8195C54.0701 11.8646 52.709 11.8522 51.128 11.8359Z" fill="white"/>
    <path d="M29.2972 17.2903C29.9141 16.865 29.9926 16.2686 29.4682 15.9592C28.9442 15.6521 28.0205 15.7485 27.401 16.1738C26.779 16.6031 26.7057 17.1991 27.2271 17.5076C27.7515 17.816 28.6778 17.7193 29.2972 17.2903Z" fill="white"/>
    <path fill-rule="evenodd" clip-rule="evenodd" d="M68.7087 16.5254L68.6169 16.4192C67.4675 16.6569 67.2584 16.6938 66.2015 16.8351L66.1172 16.9068C66.1146 16.9247 66.112 16.9423 66.1094 16.9598L66.1038 16.9462C65.3104 18.7691 65.3375 18.3753 64.6968 19.8041C64.6942 19.739 64.6909 19.6902 64.6883 19.6289L64.5281 16.5254L64.4301 16.4192C63.2214 16.6569 63.1918 16.6938 62.0779 16.8351L61.988 16.9068C61.9828 16.9491 61.9772 16.9898 61.9717 17.0335L61.9828 17.0442C62.1186 17.7614 62.0886 17.6037 62.2274 18.7258C62.2896 19.2746 62.3769 19.8328 62.4391 20.3803C62.5531 21.2848 62.6127 21.7437 62.7459 23.1243C61.9935 24.3737 61.8144 24.8436 61.0969 25.9383V25.9409L60.5836 26.7532C60.5266 26.8402 60.4722 26.8942 60.4015 26.9216C60.3201 26.9568 60.2087 26.9708 60.0618 26.9708H59.6707L59.345 28.4318L60.8012 28.4103C61.6457 28.4035 62.1808 27.9866 62.4717 27.4596L63.3628 25.9048L68.7087 16.5254Z" fill="white"/>
</svg>
